<?xml version="1.0" standalone="no"?>
<!DOCTYPE svg PUBLIC "-//W3C//DTD SVG 20010904//EN"
 "http://www.w3.org/TR/2001/REC-SVG-20010904/DTD/svg10.dtd">
<svg version="1.0" xmlns="http://www.w3.org/2000/svg"
 width="140.000000pt" height="140.000000pt" viewBox="0 0 140.000000 140.000000"
 preserveAspectRatio="xMidYMid meet">

<g transform="translate(0.000000,140.000000) scale(0.100000,-0.100000)"
fill="#000000" stroke="none">
<path d="M922 854 l3 -209 45 -3 c24 -2 45 -4 47 -5 1 -2 0 -13 -4 -25 -5 -22
-9 -23 -109 -21 -91 1 -104 4 -104 18 0 19 -35 54 -63 64 -10 4 -34 0 -53 -8
-25 -10 -36 -22 -40 -45 -5 -25 -11 -30 -34 -30 -23 0 -29 5 -34 30 -8 43 -61
68 -102 49 -16 -8 -36 -29 -44 -47 -13 -29 -19 -32 -52 -30 -20 1 -40 -1 -44
-4 -3 -4 105 -137 240 -297 l247 -291 289 0 290 0 0 248 0 247 -82 98 c-64 75
-84 94 -91 82 -4 -9 -12 -13 -18 -10 -12 8 -12 72 1 80 20 13 9 61 -32 132
l-42 73 -61 0 -61 0 -47 56 -47 57 2 -209z m241 6 l38 -70 -100 0 -101 0 0 70
0 70 63 0 62 0 38 -70z m-73 -105 c0 -10 -11 -15 -35 -15 -24 0 -35 5 -35 15
0 10 11 15 35 15 24 0 35 -5 35 -15z m-552 -127 c19 -19 14 -55 -10 -72 -12
-9 -26 -16 -30 -16 -13 0 -48 39 -48 54 0 37 61 61 88 34z m216 -4 c19 -19 20
-35 4 -56 -20 -24 -44 -28 -67 -12 -23 17 -28 53 -9 72 17 17 54 15 72 -4z
m376 -4 c22 -42 -21 -90 -62 -69 -44 23 -27 89 22 89 19 0 33 -7 40 -20z m98
-2 c-2 -17 -10 -23 -27 -23 -15 0 -27 8 -32 23 -8 20 -5 22 27 22 31 0 35 -3
32 -22z"/>
<path d="M253 923 c9 -2 25 -2 35 0 9 3 1 5 -18 5 -19 0 -27 -2 -17 -5z"/>
<path d="M390 880 l0 -50 35 0 c24 0 35 5 35 15 0 8 -9 15 -20 15 -16 0 -20 7
-20 35 0 24 -5 35 -15 35 -11 0 -15 -12 -15 -50z"/>
<path d="M485 906 c-13 -19 -14 -29 -6 -45 25 -45 91 -33 91 17 0 54 -56 72
-85 28z m53 -24 c2 -15 -2 -22 -12 -22 -11 0 -16 9 -16 26 0 31 23 28 28 -4z"/>
<path d="M590 880 c0 -54 19 -71 21 -17 l1 32 11 -33 c11 -37 28 -37 38 -1 7
23 7 23 8 -4 2 -47 26 -25 29 26 3 44 2 47 -22 47 -18 0 -26 -6 -29 -22 l-4
-23 -8 23 c-4 12 -16 22 -26 22 -16 0 -19 -8 -19 -50z"/>
<path d="M710 880 l0 -50 40 0 c29 0 40 4 40 15 0 9 -10 15 -27 16 -26 1 -27
1 -5 7 13 4 23 12 23 17 0 6 -10 13 -23 17 -22 6 -21 6 5 7 43 2 31 21 -13 21
l-40 0 0 -50z"/>
<path d="M810 880 c0 -41 3 -50 18 -50 58 1 86 36 62 79 -8 15 -20 21 -45 21
l-35 0 0 -50z m54 14 c7 -18 0 -34 -15 -34 -5 0 -9 11 -9 25 0 28 15 34 24 9z"/>
<path d="M275 800 c-3 -5 -1 -10 4 -10 6 0 11 5 11 10 0 6 -2 10 -4 10 -3 0
-8 -4 -11 -10z"/>
<path d="M263 673 c9 -2 23 -2 30 0 6 3 -1 5 -18 5 -16 0 -22 -2 -12 -5z"/>
</g>
</svg>
